<svg xmlns="http://www.w3.org/2000/svg" xmlns:xlink="http://www.w3.org/1999/xlink" width="23.048mm" height="5.825mm" viewBox="0 0 65.333 16.511"><defs><style>.a{fill:none;}.b{clip-path:url(#a);}.c{fill:url(#b);}</style><clipPath id="a" transform="translate(0 0)"><path class="a" d="M7.021,0A6.99,6.99,0,0,0,2.827,1.4a6.7,6.7,0,0,0-1.2,1.15A7.14,7.14,0,0,0,0,7,9.6,9.6,0,0,0,.218,8.9a9.029,9.029,0,0,0,1.926,3.806,8.611,8.611,0,0,0,6.648,2.919H62.335a1.585,1.585,0,0,0,1.367.886H63.8a1.568,1.568,0,0,0,.73-.186,1.537,1.537,0,0,0,.808-1.336V14.9a1.559,1.559,0,0,0-.141-.621,1.535,1.535,0,0,0-1.366-.918h-.14a1.379,1.379,0,0,0-.932.389,2.316,2.316,0,0,0-.372.42H44.145a5.148,5.148,0,0,1-.978-.218,6.155,6.155,0,0,1-2.253-1.336H40.9l-.124.14a7.376,7.376,0,0,1-1.259.855,5.835,5.835,0,0,1-1.832.559H34.763a5.924,5.924,0,0,0,1.025-.234,4.475,4.475,0,0,0,1.072-.5,2.268,2.268,0,0,0,1.2-1.8v-.171a1.39,1.39,0,0,0-.2-.684,1.723,1.723,0,0,0-1.49-.823,3.259,3.259,0,0,0-1.756.606v.031A1.7,1.7,0,0,1,35,11.618v.047a1.808,1.808,0,0,1-.591,1.258,3.579,3.579,0,0,1-1.2.667,14.944,14.944,0,0,1-4.023.576H16.667a7.713,7.713,0,0,1-.978-.125,5.777,5.777,0,0,1-1.041-.342,1.32,1.32,0,0,1-.793-1.149,1.162,1.162,0,0,1,.265-.683,1.87,1.87,0,0,0-1.088-.419h-.124a.791.791,0,0,0-.295.045,1.055,1.055,0,0,0-.808,1.026,1.392,1.392,0,0,0,.28.793,2.529,2.529,0,0,0,1.46.854H9.274l-.312.015a7.2,7.2,0,0,1-7.5-7.16A5.66,5.66,0,0,1,3.246,2.935,5.533,5.533,0,0,1,7.021,1.459a4.293,4.293,0,0,1,3.122,1.3,4.193,4.193,0,0,1,1.211,2.858v.2a3.218,3.218,0,0,1-.916,2.237A3.87,3.87,0,0,1,9.2,8.869a4.586,4.586,0,0,1-1.289.217,2.625,2.625,0,0,1-1.817-.777,2.718,2.718,0,0,1-.761-1.8,2.314,2.314,0,0,1,.512-1.43A2.133,2.133,0,0,1,7.348,4.3a1.6,1.6,0,0,1,.589.109,1.9,1.9,0,0,1,1.1.9,2.3,2.3,0,0,0-.7,1.507v.047a.552.552,0,0,0,.544.389h.062a.578.578,0,0,0,.3-.094,1.436,1.436,0,0,0,.4-1.087V5.887a2.108,2.108,0,0,0-.419-1.243,2.487,2.487,0,0,0-1.973-1,3.1,3.1,0,0,0-1.709.575A3.251,3.251,0,0,0,4.3,6.787a2.608,2.608,0,0,0,.077.637A3.851,3.851,0,0,0,5.421,9.381a3.8,3.8,0,0,0,2.563,1.134h.233l.451-.031a4.184,4.184,0,0,0,.372.668,1.241,1.241,0,0,0,.249-.776l.419-.141A4.908,4.908,0,0,0,10.873,9.6,4.711,4.711,0,0,0,12.8,5.808v-.2a5.5,5.5,0,0,0-.465-2.144V3.447q.387.39,1.025,1.1l2.9,3.5a36.828,36.828,0,0,0,2.595,2.78,16.628,16.628,0,0,0,2.748,2.081,6.719,6.719,0,0,0,3.045.948h.031a3.765,3.765,0,0,0,2.269-.761,2.926,2.926,0,0,0,1.117-2.315,3.377,3.377,0,0,0-.2-1.118,2.479,2.479,0,0,0-2.3-1.709,2.278,2.278,0,0,0-1.211.342,1.878,1.878,0,0,0-.963,1.569,1.736,1.736,0,0,0,.528,1.273v-.015a1.673,1.673,0,0,1-.342-.978v-.125a1.565,1.565,0,0,1,.2-.714,1.876,1.876,0,0,1,1.553-.87,2.094,2.094,0,0,1,1.087.326,2.282,2.282,0,0,1,.916,1.833,2.321,2.321,0,0,1-.372,1.227,2.645,2.645,0,0,1-2.221,1.118,4.983,4.983,0,0,1-1.352-.264,8.332,8.332,0,0,1-1.725-.9A22.023,22.023,0,0,1,18.64,9.242q-1.4-1.445-2.967-3.231V6a3.513,3.513,0,0,0,2.175,1.026,1.8,1.8,0,0,0,.512-.079,1.106,1.106,0,0,0,.808-1.025q0-1.039-1.46-1.382l-.046.218A1.14,1.14,0,0,1,16.5,5.56a3.8,3.8,0,0,1-1.926-.947,5,5,0,0,1-1.04-.948q-1.258-1.257-1.926-1.8A8.4,8.4,0,0,0,10.1.916,5.488,5.488,0,0,0,7.021,0Z"/></clipPath><linearGradient id="b" x1="-19.434" y1="629.772" x2="-18.434" y2="629.772" gradientTransform="matrix(65.333, 0, 0, -65.333, 1269.705, 41152.903)" gradientUnits="userSpaceOnUse"><stop offset="0" stop-color="#395e7a"/><stop offset="0.176" stop-color="#395e7a"/><stop offset="1" stop-color="#152741"/></linearGradient></defs><title>itur</title><g class="b"><rect class="c" width="65.333" height="16.511"/></g></svg>